<svg xmlns="http://www.w3.org/2000/svg" xmlns:xlink="http://www.w3.org/1999/xlink" viewBox="0 0 367.38 430.5"><defs><style>.cls-1{fill:url(#linear-gradient);}.cls-2{fill:url(#linear-gradient-2);}</style><linearGradient id="linear-gradient" x1="180.81" y1="36.25" x2="343.84" y2="139.55" gradientUnits="userSpaceOnUse"><stop offset="0" stop-color="#e657af"/><stop offset="0.53" stop-color="#0049ff"/><stop offset="1" stop-color="#43cf2e"/></linearGradient><linearGradient id="linear-gradient-2" x1="79.77" y1="225.12" x2="234.66" y2="426.43" xlink:href="#linear-gradient"/></defs><title>lock2</title><g id="Layer_2" data-name="Layer 2"><g id="Layer_1-2" data-name="Layer 1"><path class="cls-1" d="M224.38,142.75V96.5a46.5,46.5,0,0,1,93,0v46.25h45.41a34.8,34.8,0,0,1,4.59.31V96.5C367.38,43.42,324,0,270.88,0h0c-53.08,0-96.5,43.42-96.5,96.5v46.62a35.42,35.42,0,0,1,5.08-.37Z"/><path class="cls-2" d="M218.67,142.5H35.33A35.33,35.33,0,0,0,0,177.83V395.17A35.33,35.33,0,0,0,35.33,430.5H218.67A35.33,35.33,0,0,0,254,395.17V177.83A35.33,35.33,0,0,0,218.67,142.5ZM127,318a31.5,31.5,0,1,1,31.5-31.5A31.5,31.5,0,0,1,127,318Z"/></g></g></svg>