<svg xmlns="http://www.w3.org/2000/svg" viewBox="0 0 344 458"><title>Asset 2</title><g id="Layer_2" data-name="Layer 2"><g id="Layer_1-2" data-name="Layer 1"><path d="M289,10a45.05,45.05,0,0,1,45,45V403a45.05,45.05,0,0,1-45,45H55a45.05,45.05,0,0,1-45-45V55A45.05,45.05,0,0,1,55,10H289m0-10H55A55,55,0,0,0,0,55V403a55,55,0,0,0,55,55H289a55,55,0,0,0,55-55V55A55,55,0,0,0,289,0Z"/><path d="M138.31,197.47q-1.08,5.28-5.91,10.74t-13.71,5.46q-9.54,0-15.09-6.63t-5.55-17.13q0-10.5,5.55-17.1t15.09-6.6q9.3,0,14,5.61t5.46,10.11l-8.46.06a13.82,13.82,0,0,0-3.21-5.64q-2.49-2.82-7.53-2.82a10.94,10.94,0,0,0-9.18,4.5q-3.42,4.5-3.42,11.88t3.42,12a10.89,10.89,0,0,0,9.18,4.56,9.53,9.53,0,0,0,7.47-3,15.11,15.11,0,0,0,3.51-6Z"/><path d="M178.15,172.81q5.58,6.6,5.58,17.1T178.15,207q-5.58,6.63-15,6.63t-15-6.63q-5.61-6.63-5.61-17.13t5.61-17.1q5.61-6.6,15-6.6T178.15,172.81Zm-6,29q3.33-4.65,3.33-11.91t-3.33-11.76a11.19,11.19,0,0,0-18.12,0q-3.27,4.62-3.27,11.76t3.27,11.91a11.15,11.15,0,0,0,18.12,0Z"/><path d="M191.71,212.47V167.41h7.68v45.06Z"/><path d="M234.25,212.59l-17.88-32.16-.12,32.16h-7.92V167.41h9.42l18.18,32.16V167.41h7.86v45.18Z"/><path d="M171.1,269.47q-1.08,5.28-5.91,10.74t-13.71,5.46q-9.54,0-15.09-6.63t-5.55-17.13q0-10.5,5.55-17.1t15.09-6.6q9.3,0,14,5.61t5.46,10.11l-8.46.06a13.82,13.82,0,0,0-3.21-5.64q-2.49-2.82-7.53-2.82a10.94,10.94,0,0,0-9.18,4.5q-3.42,4.5-3.42,11.88t3.42,12a10.89,10.89,0,0,0,9.18,4.56,9.53,9.53,0,0,0,7.47-3,15.11,15.11,0,0,0,3.51-6Z"/><path d="M198.1,284.59H189l-17-45.12h7.86l13.68,35.82,13.68-35.82h7.92Z"/></g></g></svg>