<?xml version="1.0" ?><svg enable-background="new 0 0 200 200" id="Layer_1" version="1.1" viewBox="0 0 200 200" xml:space="preserve" xmlns="http://www.w3.org/2000/svg" xmlns:xlink="http://www.w3.org/1999/xlink"><g><linearGradient gradientUnits="userSpaceOnUse" id="SVGID_1_" x1="39.8612" x2="152.3592" y1="160.1403" y2="47.6423"><stop offset="1.274966e-07" style="stop-color:#12C2E9"/><stop offset="0.4754" style="stop-color:#C471ED"/><stop offset="1" style="stop-color:#F64F59"/></linearGradient><path d="M175.426,41.522H24.584c-7.582,0-13.75,6.164-13.75,13.74v89.476c0,7.576,6.168,13.74,13.75,13.74   h68.858c1.933,0,3.5-1.567,3.5-3.5s-1.567-3.5-3.5-3.5H24.584c-3.722,0-6.75-3.023-6.75-6.74V55.262c0-3.716,3.028-6.74,6.75-6.74   h150.842c3.717,0,6.74,3.023,6.74,6.74v89.476c0,3.716-3.023,6.74-6.74,6.74h-68.806c-1.933,0-3.5,1.567-3.5,3.5s1.567,3.5,3.5,3.5   h68.806c7.576,0,13.74-6.164,13.74-13.74V55.262C189.167,47.686,183.002,41.522,175.426,41.522z" fill="url(#SVGID_1_)"/><linearGradient gradientUnits="userSpaceOnUse" id="SVGID_2_" x1="19.4493" x2="131.9473" y1="139.7284" y2="27.2304"><stop offset="1.274966e-07" style="stop-color:#12C2E9"/><stop offset="0.4754" style="stop-color:#C471ED"/><stop offset="1" style="stop-color:#F64F59"/></linearGradient><path d="M82.334,94.35c-0.404-1.298-1.524-2.244-2.871-2.427l-14.591-1.981L58.39,77.667   c-0.606-1.148-1.797-1.866-3.095-1.866s-2.489,0.718-3.095,1.866l-6.482,12.274l-14.591,1.981   c-1.347,0.183-2.466,1.129-2.871,2.427c-0.404,1.298-0.02,2.713,0.985,3.628l10.413,9.486l-2.446,13.33   c-0.239,1.301,0.276,2.625,1.331,3.423c0.62,0.469,1.363,0.709,2.112,0.709c0.525,0,1.054-0.118,1.543-0.359l13.102-6.438   l13.103,6.438c1.187,0.584,2.601,0.447,3.655-0.35c1.055-0.798,1.569-2.122,1.331-3.423l-2.446-13.33l10.413-9.486   C82.354,97.063,82.739,95.648,82.334,94.35z M64.787,103.598c-0.894,0.814-1.304,2.031-1.085,3.219l1.542,8.401l-8.405-4.129   c-0.487-0.239-1.015-0.359-1.543-0.359s-1.057,0.12-1.543,0.359l-8.404,4.129l1.542-8.401c0.218-1.188-0.192-2.405-1.085-3.219   l-6.308-5.747l8.948-1.215c1.119-0.152,2.096-0.835,2.624-1.834l4.228-8.006l4.229,8.006c0.527,0.999,1.504,1.682,2.624,1.834   l8.948,1.215L64.787,103.598z" fill="url(#SVGID_2_)"/><linearGradient gradientUnits="userSpaceOnUse" id="SVGID_3_" x1="41.5793" x2="154.0773" y1="161.8584" y2="49.3604"><stop offset="1.274966e-07" style="stop-color:#12C2E9"/><stop offset="0.4754" style="stop-color:#C471ED"/><stop offset="1" style="stop-color:#F64F59"/></linearGradient><path d="M94.568,76.408h71.923c1.933,0,3.5-1.567,3.5-3.5s-1.567-3.5-3.5-3.5H94.568   c-1.933,0-3.5,1.567-3.5,3.5S92.635,76.408,94.568,76.408z" fill="url(#SVGID_3_)"/><linearGradient gradientUnits="userSpaceOnUse" id="SVGID_4_" x1="50.6096" x2="163.1076" y1="170.8887" y2="58.3907"><stop offset="1.274966e-07" style="stop-color:#12C2E9"/><stop offset="0.4754" style="stop-color:#C471ED"/><stop offset="1" style="stop-color:#F64F59"/></linearGradient><path d="M94.568,94.469h71.923c1.933,0,3.5-1.567,3.5-3.5s-1.567-3.5-3.5-3.5H94.568   c-1.933,0-3.5,1.567-3.5,3.5S92.635,94.469,94.568,94.469z" fill="url(#SVGID_4_)"/><linearGradient gradientUnits="userSpaceOnUse" id="SVGID_5_" x1="59.6401" x2="172.1381" y1="179.9192" y2="67.4212"><stop offset="1.274966e-07" style="stop-color:#12C2E9"/><stop offset="0.4754" style="stop-color:#C471ED"/><stop offset="1" style="stop-color:#F64F59"/></linearGradient><path d="M94.568,112.53h71.923c1.933,0,3.5-1.567,3.5-3.5s-1.567-3.5-3.5-3.5H94.568   c-1.933,0-3.5,1.567-3.5,3.5S92.635,112.53,94.568,112.53z" fill="url(#SVGID_5_)"/><linearGradient gradientUnits="userSpaceOnUse" id="SVGID_6_" x1="68.6704" x2="181.1684" y1="188.9495" y2="76.4515"><stop offset="1.274966e-07" style="stop-color:#12C2E9"/><stop offset="0.4754" style="stop-color:#C471ED"/><stop offset="1" style="stop-color:#F64F59"/></linearGradient><path d="M94.568,130.59h71.923c1.933,0,3.5-1.567,3.5-3.5s-1.567-3.5-3.5-3.5H94.568   c-1.933,0-3.5,1.567-3.5,3.5S92.635,130.59,94.568,130.59z" fill="url(#SVGID_6_)"/><linearGradient gradientUnits="userSpaceOnUse" id="SVGID_7_" x1="-8.5673" x2="103.9307" y1="111.7118" y2="-0.7862"><stop offset="1.274966e-07" style="stop-color:#12C2E9"/><stop offset="0.4754" style="stop-color:#C471ED"/><stop offset="1" style="stop-color:#F64F59"/></linearGradient><path d="M35.91,77.607c5.72,0,10.373-4.653,10.373-10.373c0-5.72-4.653-10.373-10.373-10.373   c-5.719,0-10.373,4.653-10.373,10.373C25.538,72.954,30.191,77.607,35.91,77.607z M35.91,63.861c1.86,0,3.373,1.513,3.373,3.373   s-1.513,3.373-3.373,3.373s-3.373-1.513-3.373-3.373S34.05,63.861,35.91,63.861z" fill="url(#SVGID_7_)"/></g></svg>